<svg width="174" height="58" viewBox="0 0 174 58" fill="none" xmlns="http://www.w3.org/2000/svg">
<path d="M159.617 0H13.8167C13.237 0 12.7539 0 12.2708 0C11.7877 0 11.4012 0 10.9181 0C9.9519 0 8.9857 0.0961592 8.01949 0.288478C7.05329 0.480796 6.18371 0.769274 5.2175 1.15391C4.34792 1.63471 3.57495 2.21166 2.89861 2.88478C2.22227 3.55789 1.64255 4.32716 1.15944 5.1926C0.676343 6.05803 0.386482 7.01962 0.289861 7.98121C0.0966204 8.94281 0.0966204 9.9044 0 10.866C0 11.3468 0 11.7314 0 12.2122C0 12.693 0 13.27 0 13.7508V43.9448C0 44.5217 0 45.0025 0 45.4833C0 45.9641 0 46.3487 0 46.8295C0 47.7911 0.0966204 48.7527 0.289861 49.7143C0.483102 50.6759 0.772963 51.5413 1.15944 52.5029C1.64255 53.3684 2.12565 54.1376 2.89861 54.8107C3.57495 55.4839 4.34792 56.0608 5.2175 56.5416C6.08709 57.0224 6.95667 57.3109 8.01949 57.407C8.9857 57.5994 9.9519 57.5994 10.9181 57.6955C11.4012 57.6955 11.7877 57.6955 12.2708 57.6955C12.7539 57.6955 13.3336 57.6955 13.8167 57.6955H159.617C160.1 57.6955 160.68 57.6955 161.163 57.6955C161.646 57.6955 162.032 57.6955 162.516 57.6955C163.482 57.6955 164.448 57.5994 165.414 57.407C166.38 57.2147 167.25 56.9262 168.216 56.5416C169.086 56.0608 169.859 55.4839 170.535 54.8107C171.211 54.1376 171.791 53.3684 172.274 52.5029C172.757 51.6375 173.047 50.6759 173.144 49.7143C173.337 48.7527 173.337 47.7911 173.434 46.8295C173.434 46.3487 173.434 45.9641 173.434 45.4833C173.434 45.0025 173.434 44.4256 173.434 43.9448V13.7508C173.434 13.27 173.434 12.693 173.434 12.2122C173.434 11.7314 173.434 11.3468 173.434 10.866C173.434 9.9044 173.337 8.94281 173.144 7.98121C172.951 7.01962 172.661 6.15419 172.274 5.1926C171.791 4.32716 171.211 3.55789 170.535 2.88478C169.859 2.21166 169.086 1.63471 168.216 1.15391C167.347 0.673114 166.38 0.384637 165.414 0.288478C164.448 0.0961592 163.482 0.0961592 162.516 0C162.032 0 161.646 0 161.163 0C160.68 0 160.197 0 159.617 0Z" fill="#B6B6B6"/>
<path d="M12.2693 56.3493C11.7862 56.3493 11.3997 56.3493 10.9166 56.3493C10.1437 56.3493 9.17745 56.2531 8.21124 56.1569C7.34166 55.9646 6.5687 55.7723 5.79573 55.3877C5.02277 55.003 4.34643 54.5222 3.76671 53.9453C3.18698 53.3683 2.70388 52.6952 2.3174 51.9259C1.93092 51.1567 1.64106 50.3874 1.54444 49.5219C1.3512 48.5604 1.3512 47.5988 1.3512 46.8295C1.3512 46.541 1.3512 45.4833 1.3512 45.4833V12.116C1.3512 12.116 1.3512 11.1544 1.3512 10.866C1.3512 10.0967 1.44782 9.13509 1.54444 8.17349C1.73768 7.30806 1.93092 6.53879 2.3174 5.76951C2.70388 5.00024 3.18698 4.32713 3.76671 3.75017C4.34643 3.17322 5.02277 2.69242 5.79573 2.30778C6.5687 1.92315 7.34166 1.63467 8.21124 1.53851C9.17745 1.34619 10.1437 1.34619 10.9166 1.34619H12.2693H161.258H162.611C163.384 1.34619 164.35 1.44235 165.316 1.53851C166.186 1.73083 166.959 1.92315 167.732 2.30778C168.504 2.69242 169.181 3.17322 169.761 3.75017C170.34 4.32713 170.823 5.00024 171.21 5.76951C171.596 6.53879 171.886 7.30806 171.983 8.17349C172.176 9.03893 172.176 10.0005 172.273 10.866C172.273 11.2506 172.273 11.7314 172.273 12.116C172.273 12.693 172.273 13.1738 172.273 13.6546V43.8486C172.273 44.3294 172.273 44.9063 172.273 45.3871C172.273 45.8679 172.273 46.2525 172.273 46.7333C172.273 47.5988 172.176 48.5604 171.983 49.4258C171.79 50.2912 171.596 51.0605 171.21 51.8298C170.823 52.599 170.34 53.2722 169.761 53.8491C169.181 54.4261 168.504 54.9069 167.732 55.2915C166.959 55.6761 166.186 55.9646 165.316 56.0608C164.35 56.2531 163.384 56.2531 162.611 56.2531C162.224 56.2531 161.741 56.2531 161.355 56.2531H159.809L12.2693 56.3493Z" fill="black"/>
<path d="M35.9442 29.2324C35.9442 25.2899 39.2293 23.3667 39.3259 23.2705C37.4901 20.5781 34.5915 20.1934 33.5287 20.1934C31.1132 19.905 28.6977 21.6358 27.5382 21.6358C26.2822 21.6358 24.3497 20.1934 22.3207 20.2896C19.712 20.2896 17.1998 21.8281 15.8472 24.2321C13.0452 29.0401 15.1708 36.1559 17.7796 40.0984C19.1322 42.0216 20.6782 44.1371 22.7072 44.0409C24.7362 43.9448 25.5092 42.7909 27.9247 42.7909C30.3402 42.7909 31.0166 44.0409 33.1422 44.0409C35.2679 44.0409 36.6205 42.1177 37.9732 40.1946C39.5192 37.9829 40.1955 35.8674 40.1955 35.7712C40.0989 35.5789 35.9442 34.0404 35.9442 29.2324Z" fill="white"/>
<path d="M31.9852 17.5972C33.048 16.251 33.821 14.4239 33.6277 12.5969C32.0818 12.6931 30.1494 13.6547 28.9899 15.0009C28.0237 16.1548 27.0575 18.078 27.3474 19.8089C29.0866 19.905 30.8257 18.8473 31.9852 17.5972Z" fill="white"/>
<path fill-rule="evenodd" clip-rule="evenodd" d="M54.502 39.1369H61.3621L62.908 43.9448H65.9032L59.4297 26.0592H56.4344L49.9609 43.9448H52.8595L54.502 39.1369ZM60.5876 36.829H55.1769L57.7856 28.944H57.8822L60.5876 36.829Z" fill="white"/>
<path fill-rule="evenodd" clip-rule="evenodd" d="M74.4996 44.0412C77.7847 44.0412 80.007 41.4449 80.007 37.4062C80.007 33.3675 77.7847 30.7712 74.403 30.675C72.5672 30.675 71.0213 31.5405 70.2483 32.9829H70.1517V30.7712H67.543V48.176H70.2483V41.7334H70.345C71.1179 43.1757 72.6638 44.0412 74.4996 44.0412ZM73.7237 32.9828C75.8493 32.9828 77.202 34.8098 77.202 37.4061C77.202 40.0986 75.8493 41.8294 73.7237 41.8294C71.598 41.8294 70.2453 40.0024 70.2453 37.4061C70.2453 34.7136 71.6946 32.9828 73.7237 32.9828Z" fill="white"/>
<path fill-rule="evenodd" clip-rule="evenodd" d="M88.8989 44.0412C92.184 44.0412 94.4062 41.4449 94.4062 37.4062C94.4062 33.3675 92.184 30.7712 88.8022 30.675C86.9665 30.675 85.4205 31.5405 84.6476 32.9829H84.551V30.7712H81.9422V48.176H84.6476V41.7334H84.7442C85.5172 43.1757 87.0631 44.0412 88.8989 44.0412ZM88.221 32.9828C90.3467 32.9828 91.6994 34.8098 91.6994 37.4061C91.6994 40.0986 90.25 41.8294 88.221 41.8294C86.0954 41.8294 84.7427 40.0024 84.7427 37.4061C84.7427 34.7136 86.192 32.9828 88.221 32.9828Z" fill="white"/>
<path d="M103.971 38.9446C104.164 40.6754 105.903 41.9255 108.318 41.9255C110.541 41.9255 112.183 40.7716 112.183 39.1369C112.183 37.7907 111.217 36.9252 108.898 36.3483L106.579 35.7713C103.294 35.002 101.748 33.4635 101.748 30.9633C101.748 27.8863 104.454 25.7708 108.318 25.7708C112.087 25.7708 114.695 27.8863 114.792 30.9633H112.087C111.893 29.1363 110.444 28.0786 108.222 28.0786C106 28.0786 104.55 29.1363 104.55 30.771C104.55 32.0211 105.516 32.7904 107.835 33.3673L109.864 33.8481C113.536 34.7136 115.082 36.1559 115.082 38.8484C115.082 42.214 112.377 44.3295 108.125 44.3295C104.164 44.3295 101.458 42.3101 101.265 39.0407H103.971V38.9446Z" fill="white"/>
<path d="M120.881 27.7901V30.8672H123.393V32.9827H120.881V40.1946C120.881 41.3485 121.364 41.8293 122.523 41.8293C122.813 41.8293 123.2 41.8293 123.393 41.7332V43.8487C123.103 43.9448 122.523 43.9448 121.943 43.9448C119.335 43.9448 118.272 42.9832 118.272 40.3869V32.8865H116.339V30.771H118.272V27.6939H120.881V27.7901Z" fill="white"/>
<path fill-rule="evenodd" clip-rule="evenodd" d="M130.921 30.675C127.153 30.675 124.737 33.2713 124.737 37.4062C124.737 41.541 127.153 44.1373 130.921 44.1373C134.689 44.1373 137.105 41.541 137.105 37.4062C137.105 33.2713 134.689 30.675 130.921 30.675ZM131.016 32.8868C133.238 32.8868 134.494 34.6176 134.494 37.4062C134.494 40.291 133.238 41.9257 131.016 41.9257C128.794 41.9257 127.538 40.1949 127.538 37.4062C127.538 34.5215 128.794 32.8868 131.016 32.8868Z" fill="white"/>
<path d="M139.43 30.8673H142.039V33.079H142.136C142.522 31.6366 143.778 30.675 145.324 30.675C145.711 30.675 146 30.7711 146.29 30.7711V33.2713C146.097 33.1751 145.614 33.079 145.034 33.079C143.295 33.079 142.232 34.2329 142.232 36.0599V43.8488H139.527V30.8673H139.43Z" fill="white"/>
<path fill-rule="evenodd" clip-rule="evenodd" d="M158.545 40.1947C158.551 40.1628 158.556 40.1308 158.562 40.0986V40.1947H158.545ZM152.958 44.1372C155.817 44.1372 158.113 42.546 158.545 40.1947H156.049C155.76 41.3486 154.503 42.0217 153.054 42.0217C150.929 42.0217 149.479 40.5794 149.479 38.3677V38.1754H158.755V37.2138C158.755 33.2713 156.533 30.7711 152.861 30.7711C149.189 30.7711 146.774 33.3674 146.774 37.5023C146.774 41.6371 149.093 44.1372 152.958 44.1372ZM156.046 36.2521H149.476C149.573 34.2328 150.926 32.8866 152.858 32.9827C154.694 32.9827 155.95 34.2328 156.046 36.2521Z" fill="white"/>
</svg>
