<svg width="184" height="41" viewBox="0 0 184 41" fill="none" xmlns="http://www.w3.org/2000/svg">
<path d="M157.453 7.65369H175.196L183.994 23.0908L175.196 38.3792H157.453L166.391 23.0204L157.453 7.65369Z" fill="#004392"/>
<path d="M166.391 23.0209L175.016 38.137L164.038 27.0652L166.391 23.0209Z" fill="#0C213C"/>
<path d="M55.6575 32.3105C55.587 32.2517 55.5479 32.1578 55.5479 32.0364V31.9346C55.5479 31.8132 55.587 31.731 55.6575 31.6605C55.728 31.6018 55.8376 31.5705 55.9589 31.5705C56.2212 31.5705 56.3544 31.6919 56.3544 31.9346V32.0364C56.3544 32.1578 56.323 32.24 56.2526 32.3105C56.1821 32.3692 56.0803 32.4005 55.9589 32.4005C55.8258 32.4005 55.728 32.3692 55.6575 32.3105ZM56.1743 38.0539C56.1234 38.1048 56.0529 38.1361 55.9628 38.1361C55.8806 38.1361 55.8102 38.1048 55.7514 38.0539C55.6927 38.003 55.6692 37.9325 55.6692 37.8425V33.3519C55.6692 33.2696 55.7005 33.1992 55.7514 33.1404C55.8023 33.0895 55.8728 33.0582 55.9628 33.0582C56.0451 33.0582 56.1156 33.0895 56.1743 33.1404C56.233 33.1913 56.2565 33.2618 56.2565 33.3519V37.8425C56.2565 37.9247 56.2252 37.9951 56.1743 38.0539Z" fill="#004392"/>
<path d="M61.4615 33.5561C61.7434 33.9084 61.8843 34.3861 61.8843 34.9733V37.8431C61.8843 37.9253 61.853 37.9958 61.7943 38.0545C61.7355 38.1054 61.6611 38.1367 61.5907 38.1367C61.5085 38.1367 61.438 38.1054 61.3793 38.0545C61.3284 38.0036 61.297 37.9331 61.297 37.8431V35.0007C61.297 34.5779 61.1874 34.2334 60.9838 33.9711C60.7724 33.7088 60.4475 33.5756 60.0051 33.5756C59.7232 33.5756 59.4609 33.6344 59.2064 33.7675C58.9519 33.9006 58.7522 34.0689 58.5995 34.2921C58.4469 34.5153 58.3686 34.7462 58.3686 35.0007V37.8431C58.3686 37.9253 58.3372 37.9958 58.2863 38.0545C58.2276 38.1054 58.165 38.1367 58.0749 38.1367C57.9927 38.1367 57.9223 38.1054 57.8635 38.0545C57.8126 38.0036 57.7813 37.9331 57.7813 37.8431V33.466C57.7813 33.3838 57.8126 33.3133 57.8635 33.2546C57.9223 33.2037 57.9849 33.1724 58.0749 33.1724C58.1572 33.1724 58.2276 33.2037 58.2863 33.2546C58.3372 33.3055 58.3686 33.376 58.3686 33.466V34.0024C58.5408 33.7205 58.7914 33.4856 59.1281 33.3055C59.453 33.1254 59.7937 33.0236 60.1382 33.0236C60.7333 33.0354 61.1796 33.2037 61.4615 33.56V33.5561Z" fill="#004392"/>
<path d="M64.3981 33.7071V36.984C64.3981 37.2267 64.4373 37.399 64.5391 37.489C64.6291 37.5791 64.7505 37.6221 64.9032 37.6221C64.9423 37.6221 64.9932 37.6104 65.0441 37.6025C65.1028 37.583 65.1459 37.583 65.1851 37.583C65.2438 37.583 65.2947 37.6025 65.3377 37.6534C65.3808 37.7043 65.3965 37.7552 65.3965 37.8257C65.3965 37.9158 65.3456 37.998 65.2438 38.0567C65.142 38.1154 65.0128 38.1467 64.8679 38.1467C64.6957 38.1467 64.5352 38.1272 64.402 38.0959C64.2611 38.0645 64.128 37.9627 64.0066 37.8022C63.8735 37.6417 63.8148 37.3794 63.8148 37.0231V33.7266H63.0983C63.0161 33.7266 62.9574 33.6953 62.8947 33.6444C62.8321 33.5935 62.8125 33.523 62.8125 33.4526C62.8125 33.3704 62.8438 33.3116 62.8947 33.2607C62.9456 33.2098 63.0161 33.1785 63.0983 33.1785H63.8148V32.098C63.8148 32.0157 63.8461 31.9453 63.897 31.8865C63.9479 31.8357 64.0184 31.8043 64.1084 31.8043C64.1906 31.8043 64.2611 31.8357 64.3198 31.8865C64.3707 31.9374 64.402 32.0079 64.402 32.098V33.1785H65.3808C65.4513 33.1785 65.5139 33.2098 65.5726 33.2686C65.6314 33.3273 65.6548 33.3899 65.6548 33.4604C65.6548 33.5426 65.6235 33.6014 65.5726 33.6522C65.5218 33.7031 65.4513 33.7227 65.3808 33.7227H64.3903V33.7031L64.3981 33.7071Z" fill="#004392"/>
<path d="M70.8113 35.5491C70.7526 35.6 70.6782 35.6314 70.6077 35.6314H66.9158C66.9158 36.0268 66.998 36.3713 67.1586 36.6845C67.3191 36.9977 67.5422 37.2405 67.8476 37.4127C68.1412 37.5928 68.4936 37.6868 68.9007 37.6868C69.214 37.6868 69.4958 37.6281 69.7386 37.4949C69.9813 37.3618 70.1849 37.2013 70.3337 36.9977C70.4041 36.939 70.4746 36.9077 70.5372 36.9077C70.5999 36.9077 70.6586 36.939 70.7095 36.9899C70.7604 37.0408 70.7917 37.0995 70.7917 37.1622C70.7917 37.2326 70.7604 37.3031 70.6899 37.3657C70.4785 37.6202 70.2162 37.8317 69.903 37.9922C69.5898 38.1527 69.257 38.2349 68.9007 38.2349C68.3957 38.2349 67.9611 38.1253 67.5774 37.9099C67.1938 37.6946 66.8884 37.3932 66.677 37.0095C66.4656 36.6258 66.3521 36.1717 66.3521 35.6666C66.3521 35.1302 66.4617 34.6643 66.6653 34.2611C66.8767 33.8578 67.1625 33.5525 67.5148 33.3411C67.8672 33.1296 68.243 33.0278 68.6384 33.0278C69.0339 33.0278 69.398 33.1179 69.7386 33.3019C70.0831 33.482 70.3572 33.7482 70.5764 34.1006C70.7878 34.4529 70.9014 34.8679 70.9092 35.3534C70.8974 35.4356 70.87 35.5061 70.8074 35.557L70.8113 35.5491ZM67.5853 33.9831C67.2603 34.2454 67.0607 34.6213 66.9667 35.1067H70.2945V35.0245C70.2632 34.7309 70.1614 34.4803 70.0009 34.2572C69.8404 34.034 69.6368 33.8735 69.394 33.7599C69.1513 33.6464 68.8968 33.5877 68.6345 33.5877C68.2508 33.5995 67.9063 33.7286 67.5814 33.9831H67.5853Z" fill="#004392"/>
<path d="M74.7994 33.1019C74.9012 33.1528 74.9521 33.235 74.9521 33.3329C74.9521 33.4229 74.9208 33.4934 74.8699 33.5561C74.819 33.607 74.7603 33.6383 74.6898 33.6383C74.6585 33.6383 74.588 33.6187 74.498 33.5874C74.4079 33.5561 74.3179 33.5365 74.2239 33.5365C73.9812 33.5365 73.7502 33.6265 73.5074 33.8184C73.2647 33.9985 73.0729 34.2412 72.9202 34.5348C72.7675 34.8285 72.6892 35.1221 72.6892 35.4235V37.8392C72.6892 37.9214 72.6579 37.9918 72.607 38.0506C72.5482 38.1015 72.4856 38.1328 72.3956 38.1328C72.3055 38.1328 72.2429 38.1015 72.1841 38.0506C72.1332 37.9997 72.1019 37.9292 72.1019 37.8392V33.4621C72.1019 33.3799 72.1332 33.3094 72.1841 33.2507C72.2429 33.1998 72.3055 33.1685 72.3956 33.1685C72.4856 33.1685 72.5482 33.1998 72.607 33.2507C72.6579 33.3016 72.6892 33.3721 72.6892 33.4621V34.3195C72.8419 33.9437 73.065 33.6422 73.3665 33.3995C73.668 33.1567 74.0242 33.0236 74.4392 33.0236C74.5802 33.0236 74.7015 33.0432 74.8033 33.0941L74.7994 33.1019Z" fill="#004392"/>
<path d="M79.5613 33.5561C79.8432 33.9084 79.9841 34.3861 79.9841 34.9733V37.8431C79.9841 37.9253 79.9528 37.9958 79.8941 38.0545C79.8353 38.1054 79.761 38.1367 79.6905 38.1367C79.6083 38.1367 79.5378 38.1054 79.4791 38.0545C79.4282 38.0036 79.3969 37.9331 79.3969 37.8431V35.0007C79.3969 34.5779 79.2872 34.2334 79.0836 33.9711C78.8722 33.7088 78.5473 33.5756 78.1049 33.5756C77.823 33.5756 77.5607 33.6344 77.3062 33.7675C77.0517 33.9006 76.8521 34.0689 76.6994 34.2921C76.5467 34.5153 76.4684 34.7462 76.4684 35.0007V37.8431C76.4684 37.9253 76.4371 37.9958 76.3862 38.0545C76.3274 38.1054 76.2648 38.1367 76.1747 38.1367C76.0847 38.1367 76.0221 38.1054 75.9633 38.0545C75.9124 38.0036 75.8811 37.9331 75.8811 37.8431V33.466C75.8811 33.3838 75.9124 33.3133 75.9633 33.2546C76.0221 33.2037 76.0847 33.1724 76.1747 33.1724C76.2648 33.1724 76.3274 33.2037 76.3862 33.2546C76.4371 33.3055 76.4684 33.376 76.4684 33.466V34.0024C76.6406 33.7205 76.8912 33.4856 77.2279 33.3055C77.5528 33.1254 77.8935 33.0236 78.238 33.0236C78.8331 33.0354 79.2794 33.2037 79.5613 33.56V33.5561Z" fill="#004392"/>
<path d="M85.7788 33.2305C85.8297 33.2892 85.861 33.3636 85.861 33.4419V37.8386C85.861 37.9208 85.8297 37.9913 85.7788 38.05C85.7201 38.1009 85.6574 38.1322 85.5674 38.1322C85.4852 38.1322 85.4147 38.1009 85.356 38.05C85.2973 37.9991 85.2738 37.9286 85.2738 37.8386V37.1808C85.1132 37.4745 84.8705 37.7172 84.5456 37.9208C84.2206 38.1244 83.8683 38.2222 83.4846 38.2222C83.05 38.2222 82.6546 38.1126 82.3101 37.8777C81.9655 37.6467 81.6837 37.3414 81.4918 36.9381C81.2882 36.5427 81.1982 36.1003 81.1982 35.6031C81.1982 35.1058 81.3 34.6634 81.4996 34.268C81.7032 33.8726 81.9734 33.5711 82.3296 33.348C82.6742 33.1248 83.0696 33.0152 83.4924 33.0152C83.8878 33.0152 84.2402 33.1052 84.5651 33.2971C84.8901 33.4889 85.1328 33.7317 85.2934 34.037V33.4302C85.2934 33.348 85.3247 33.2775 85.3756 33.2188C85.4265 33.1601 85.4969 33.1287 85.587 33.1287C85.6575 33.1405 85.7279 33.1679 85.7788 33.2305ZM84.4555 37.4157C84.7296 37.2356 84.941 36.9929 85.0937 36.6758C85.2464 36.3626 85.3247 36.0102 85.3247 35.6148C85.3247 35.2194 85.2425 34.8984 85.0937 34.5851C84.9449 34.2719 84.7296 34.0292 84.4555 33.8452C84.1815 33.6612 83.88 33.5711 83.5472 33.5711C83.2144 33.5711 82.9012 33.6612 82.6389 33.8334C82.3649 34.0057 82.1535 34.2485 82.0008 34.5617C81.8481 34.8749 81.7698 35.2194 81.7698 35.6148C81.7698 36.0102 81.8402 36.3626 81.9929 36.6758C82.1456 36.989 82.357 37.2435 82.6194 37.4157C82.8934 37.5958 83.1949 37.6898 83.5394 37.6898C83.8839 37.6781 84.1854 37.5997 84.4594 37.4157H84.4555Z" fill="#004392"/>
<path d="M88.3714 33.7071V36.984C88.3714 37.2267 88.4105 37.399 88.5123 37.489C88.6024 37.5791 88.7237 37.6221 88.8764 37.6221C88.9156 37.6221 88.9665 37.6104 89.0174 37.6025C89.0761 37.583 89.1192 37.583 89.1583 37.583C89.2171 37.583 89.2679 37.6025 89.311 37.6534C89.3541 37.7043 89.3697 37.7552 89.3697 37.8257C89.3697 37.9158 89.3188 37.998 89.217 38.0567C89.1152 38.1154 88.986 38.1467 88.8412 38.1467C88.6689 38.1467 88.5084 38.1272 88.3753 38.0959C88.2344 38.0645 88.1013 37.9627 87.9799 37.8022C87.8468 37.6417 87.788 37.3794 87.788 37.0231V33.7266H87.0716C86.9894 33.7266 86.9306 33.6953 86.868 33.6444C86.8054 33.5935 86.7858 33.523 86.7858 33.4526C86.7858 33.3704 86.8171 33.3116 86.868 33.2607C86.9189 33.2098 86.9894 33.1785 87.0716 33.1785H87.788V32.098C87.788 32.0157 87.8194 31.9453 87.8702 31.8865C87.9211 31.8357 87.9916 31.8043 88.0817 31.8043C88.1639 31.8043 88.2344 31.8357 88.2931 31.8865C88.344 31.9374 88.3753 32.0079 88.3753 32.098V33.1785H89.3541C89.4246 33.1785 89.4872 33.2098 89.5459 33.2686C89.5968 33.3273 89.6281 33.3899 89.6281 33.4604C89.6281 33.5426 89.5968 33.6014 89.5459 33.6522C89.495 33.7031 89.4246 33.7227 89.3541 33.7227H88.3636V33.7031L88.3714 33.7071Z" fill="#004392"/>
<path d="M90.6746 32.3105C90.6041 32.2517 90.5649 32.1578 90.5649 32.0364V31.9346C90.5649 31.8132 90.6041 31.731 90.6746 31.6605C90.745 31.6018 90.8547 31.5705 90.976 31.5705C91.2383 31.5705 91.3714 31.6919 91.3714 31.9346V32.0364C91.3714 32.1578 91.3401 32.24 91.2697 32.3105C91.1992 32.3692 91.0974 32.4005 90.976 32.4005C90.8429 32.4005 90.745 32.3692 90.6746 32.3105ZM91.1913 38.0539C91.1404 38.1048 91.07 38.1361 90.9799 38.1361C90.8977 38.1361 90.8273 38.1048 90.7685 38.0539C90.7098 38.003 90.6863 37.9325 90.6863 37.8425V33.3519C90.6863 33.2696 90.7176 33.1992 90.7685 33.1404C90.8194 33.0895 90.8899 33.0582 90.9799 33.0582C91.0622 33.0582 91.1326 33.0895 91.1913 33.1404C91.2501 33.1913 91.2736 33.2618 91.2736 33.3519V37.8425C91.2736 37.9247 91.2422 37.9951 91.1913 38.0539Z" fill="#004392"/>
<path d="M97.0899 36.9607C96.8785 37.3561 96.5731 37.6693 96.2012 37.8925C95.8293 38.1157 95.4025 38.2253 94.9366 38.2253C94.4707 38.2253 94.0557 38.1157 93.672 37.8925C93.2962 37.6693 92.9947 37.3561 92.7833 36.9607C92.5719 36.5653 92.4584 36.1229 92.4584 35.6374C92.4584 35.152 92.568 34.7056 92.7833 34.3141C92.9947 33.9187 93.3001 33.6055 93.672 33.3745C94.044 33.1435 94.4707 33.03 94.9366 33.03C95.4025 33.03 95.8175 33.1396 96.2012 33.3745C96.577 33.6055 96.8785 33.9109 97.0899 34.3141C97.3013 34.7095 97.4148 35.152 97.4148 35.6374C97.4148 36.1229 97.3052 36.5692 97.0899 36.9607ZM96.5731 34.5764C96.4126 34.2632 96.1894 34.0205 95.8958 33.8365C95.6022 33.6525 95.289 33.5624 94.9366 33.5624C94.5843 33.5624 94.2711 33.6525 93.9774 33.8365C93.6955 34.0166 93.4606 34.2593 93.3001 34.5764C93.1396 34.8896 93.0456 35.242 93.0456 35.6296C93.0456 36.0172 93.1278 36.3578 93.3001 36.671C93.4606 36.9842 93.6955 37.2269 93.9774 37.4109C94.2593 37.5949 94.5843 37.685 94.9366 37.685C95.289 37.685 95.6022 37.595 95.8958 37.4227C96.1894 37.2504 96.4126 36.9998 96.5731 36.6945C96.7336 36.3813 96.8159 36.0289 96.8159 35.6413C96.8159 35.2459 96.7336 34.8936 96.5731 34.5803V34.5764Z" fill="#004392"/>
<path d="M102.29 33.5561C102.572 33.9084 102.713 34.3861 102.713 34.9733V37.8431C102.713 37.9253 102.682 37.9958 102.623 38.0545C102.564 38.1054 102.49 38.1367 102.419 38.1367C102.337 38.1367 102.267 38.1054 102.208 38.0545C102.157 38.0036 102.126 37.9331 102.126 37.8431V35.0007C102.126 34.5779 102.016 34.2334 101.813 33.9711C101.601 33.7088 101.276 33.5756 100.834 33.5756C100.552 33.5756 100.29 33.6344 100.035 33.7675C99.7807 33.9006 99.5811 34.0689 99.4284 34.2921C99.2757 34.5153 99.1974 34.7462 99.1974 35.0007V37.8431C99.1974 37.9253 99.166 37.9958 99.1151 38.0545C99.0564 38.1054 98.9938 38.1367 98.9037 38.1367C98.8215 38.1367 98.7511 38.1054 98.6923 38.0545C98.6414 38.0036 98.6101 37.9331 98.6101 37.8431V33.466C98.6101 33.3838 98.6414 33.3133 98.6923 33.2546C98.7511 33.2037 98.8137 33.1724 98.9037 33.1724C98.986 33.1724 99.0564 33.2037 99.1151 33.2546C99.166 33.3055 99.1974 33.376 99.1974 33.466V34.0024C99.3696 33.7205 99.6202 33.4856 99.9569 33.3055C100.282 33.1254 100.622 33.0236 100.967 33.0236C101.562 33.0354 102.008 33.2037 102.29 33.56V33.5561Z" fill="#004392"/>
<path d="M108.508 33.2305C108.559 33.2892 108.59 33.3636 108.59 33.4419V37.8386C108.59 37.9208 108.559 37.9913 108.508 38.05C108.449 38.1009 108.387 38.1322 108.296 38.1322C108.214 38.1322 108.144 38.1009 108.085 38.05C108.026 37.9991 108.003 37.9286 108.003 37.8386V37.1808C107.842 37.4745 107.6 37.7172 107.275 37.9208C106.95 38.1244 106.597 38.2222 106.214 38.2222C105.779 38.2222 105.384 38.1126 105.039 37.8777C104.695 37.6428 104.413 37.3414 104.221 36.9381C104.017 36.5427 103.927 36.1003 103.927 35.6031C103.927 35.1058 104.029 34.6634 104.229 34.268C104.432 33.8726 104.702 33.5711 105.059 33.348C105.403 33.1248 105.799 33.0152 106.221 33.0152C106.617 33.0152 106.969 33.1052 107.294 33.2971C107.619 33.4889 107.862 33.7317 108.022 34.037V33.4302C108.022 33.348 108.054 33.2775 108.105 33.2188C108.156 33.1601 108.226 33.1287 108.316 33.1287C108.387 33.1405 108.457 33.1679 108.508 33.2305ZM107.185 37.4157C107.459 37.2356 107.67 36.9929 107.823 36.6758C107.975 36.3626 108.054 36.0102 108.054 35.6148C108.054 35.2194 107.972 34.8984 107.823 34.5851C107.674 34.2719 107.459 34.0292 107.185 33.8452C106.911 33.6651 106.609 33.5711 106.276 33.5711C105.944 33.5711 105.63 33.6612 105.368 33.8334C105.094 34.0057 104.883 34.2485 104.73 34.5617C104.577 34.8749 104.499 35.2194 104.499 35.6148C104.499 36.0102 104.569 36.3626 104.722 36.6758C104.875 36.989 105.086 37.2435 105.348 37.4157C105.622 37.5958 105.924 37.6898 106.268 37.6898C106.613 37.6781 106.914 37.5997 107.189 37.4157H107.185Z" fill="#004392"/>
<path d="M110.7 38.054C110.641 38.1049 110.579 38.1362 110.489 38.1362C110.406 38.1362 110.336 38.1049 110.277 38.054C110.226 38.0031 110.195 37.9326 110.195 37.8426V31.1987C110.195 31.1164 110.226 31.046 110.277 30.9873C110.328 30.9364 110.398 30.905 110.489 30.905C110.571 30.905 110.641 30.9364 110.7 30.9873C110.751 31.0382 110.782 31.1086 110.782 31.1987V37.8426C110.782 37.9248 110.751 37.9952 110.7 38.054Z" fill="#004392"/>
<path d="M114.674 37.1225C114.674 37.0402 114.713 36.9698 114.807 36.9306C114.846 36.8915 114.897 36.8719 114.959 36.8719C115.042 36.8719 115.112 36.9032 115.171 36.9737C115.554 37.4787 116.071 37.7332 116.709 37.7332C117.023 37.7332 117.297 37.6627 117.528 37.5101C117.759 37.3574 117.872 37.1459 117.872 36.8719C117.872 36.5978 117.763 36.3982 117.547 36.2533C117.332 36.1085 117.03 35.9988 116.647 35.901C116.103 35.76 115.688 35.5878 115.374 35.3646C115.073 35.1414 114.92 34.8282 114.92 34.4054C114.92 34.1431 114.991 33.9003 115.143 33.6889C115.296 33.4775 115.496 33.3131 115.75 33.1917C116.005 33.0704 116.294 33.0195 116.619 33.0195C116.901 33.0195 117.187 33.0704 117.469 33.18C117.751 33.2896 117.993 33.4619 118.197 33.6968C118.256 33.7359 118.287 33.8064 118.287 33.8886C118.287 33.9708 118.256 34.0413 118.185 34.0922C118.134 34.1313 118.084 34.1509 118.013 34.1509C117.954 34.1509 117.892 34.1196 117.841 34.0687C117.688 33.8964 117.496 33.7555 117.285 33.6654C117.073 33.5754 116.839 33.5245 116.588 33.5245C116.287 33.5245 116.02 33.595 115.801 33.7359C115.578 33.8769 115.476 34.0883 115.476 34.3819C115.488 34.6442 115.609 34.8361 115.828 34.977C116.048 35.118 116.384 35.2393 116.819 35.3528C117.152 35.4351 117.438 35.5329 117.657 35.6347C117.88 35.7365 118.06 35.8892 118.201 36.0693C118.342 36.2611 118.412 36.5039 118.412 36.8171C118.412 37.2399 118.24 37.5766 117.907 37.8272C117.575 38.0777 117.148 38.203 116.643 38.203C115.844 38.203 115.218 37.9094 114.752 37.3143C114.701 37.2556 114.67 37.1812 114.67 37.1225H114.674Z" fill="#004392"/>
<path d="M123.206 33.6573C123.488 34.0214 123.64 34.4951 123.64 35.0824V37.8426C123.64 37.9248 123.609 37.9952 123.558 38.054C123.507 38.1049 123.437 38.1362 123.347 38.1362C123.264 38.1362 123.194 38.1049 123.135 38.054C123.084 38.0031 123.053 37.9326 123.053 37.8426V35.0824C123.053 34.6596 122.951 34.3151 122.752 34.0527C122.552 33.7904 122.235 33.6573 121.8 33.6573C121.526 33.6573 121.264 33.7161 121.021 33.8492C120.778 33.9823 120.575 34.1506 120.434 34.3738C120.281 34.5969 120.211 34.8279 120.211 35.0824V37.8426C120.211 37.9248 120.179 37.9952 120.129 38.054C120.07 38.1049 120.007 38.1362 119.917 38.1362C119.835 38.1362 119.764 38.1049 119.706 38.054C119.655 38.0031 119.623 37.9326 119.623 37.8426V31.1987C119.623 31.1164 119.655 31.046 119.706 30.9873C119.764 30.9364 119.827 30.905 119.917 30.905C119.999 30.905 120.07 30.9364 120.129 30.9873C120.179 31.0382 120.211 31.1086 120.211 31.1987V34.0606C120.383 33.7787 120.626 33.5555 120.939 33.3715C121.252 33.1875 121.565 33.0975 121.898 33.0975C122.485 33.0975 122.92 33.2893 123.202 33.6534L123.206 33.6573Z" fill="#004392"/>
<path d="M125.143 32.3105C125.072 32.2517 125.033 32.1578 125.033 32.0364V31.9346C125.033 31.8132 125.072 31.731 125.143 31.6605C125.213 31.6018 125.323 31.5705 125.444 31.5705C125.707 31.5705 125.84 31.6919 125.84 31.9346V32.0364C125.84 32.1578 125.809 32.24 125.738 32.3105C125.668 32.3692 125.566 32.4005 125.444 32.4005C125.311 32.4005 125.213 32.3692 125.143 32.3105ZM125.648 38.0539C125.597 38.1048 125.527 38.1361 125.437 38.1361C125.354 38.1361 125.284 38.1048 125.225 38.0539C125.166 38.003 125.143 37.9325 125.143 37.8425V33.3519C125.143 33.2696 125.174 33.1992 125.225 33.1404C125.276 33.0895 125.347 33.0582 125.437 33.0582C125.519 33.0582 125.589 33.0895 125.648 33.1404C125.707 33.1913 125.73 33.2618 125.73 33.3519V37.8425C125.742 37.9247 125.711 37.9951 125.648 38.0539Z" fill="#004392"/>
<path d="M130.806 33.4344C131.158 33.6576 131.432 33.9591 131.636 34.3427C131.84 34.7264 131.93 35.161 131.93 35.6464C131.93 36.1319 131.828 36.5782 131.636 36.9619C131.432 37.3456 131.162 37.651 130.818 37.8702C130.473 38.0894 130.078 38.203 129.655 38.203C129.279 38.203 128.927 38.1129 128.614 37.9289C128.3 37.7488 128.046 37.5139 127.854 37.2125V39.7886C127.854 39.8708 127.823 39.9413 127.772 40C127.713 40.0509 127.65 40.0822 127.56 40.0822C127.478 40.0822 127.408 40.0509 127.349 40C127.298 39.9491 127.267 39.8786 127.267 39.7886V33.4188C127.267 33.3365 127.298 33.2661 127.349 33.2074C127.408 33.1486 127.47 33.1173 127.56 33.1173C127.643 33.1173 127.713 33.1486 127.772 33.2074C127.823 33.2661 127.854 33.3405 127.854 33.4188V34.0843C128.026 33.7829 128.269 33.5401 128.582 33.3679C128.907 33.1956 129.248 33.1056 129.635 33.1056C130.07 33.0938 130.454 33.2074 130.81 33.4305L130.806 33.4344ZM130.505 37.3965C130.779 37.2242 130.99 36.9815 131.143 36.68C131.295 36.3786 131.374 36.034 131.374 35.6504C131.374 35.2667 131.291 34.9339 131.143 34.6285C130.994 34.3232 130.779 34.0922 130.505 33.9121C130.231 33.7398 129.929 33.6498 129.596 33.6498C129.263 33.6498 128.939 33.732 128.664 33.9043C128.39 34.0765 128.179 34.3075 128.026 34.6129C127.874 34.9183 127.803 35.2589 127.803 35.6425C127.803 36.0262 127.874 36.3707 128.026 36.6722C128.179 36.9737 128.39 37.2164 128.664 37.3887C128.939 37.5609 129.252 37.651 129.596 37.651C129.929 37.6627 130.234 37.5688 130.505 37.3965Z" fill="#004392"/>
<path d="M136.68 33.4344C137.032 33.6576 137.306 33.9591 137.51 34.3427C137.713 34.7264 137.803 35.161 137.803 35.6464C137.803 36.1319 137.701 36.5782 137.51 36.9619C137.306 37.3456 137.036 37.651 136.691 37.8702C136.347 38.0894 135.951 38.203 135.529 38.203C135.153 38.203 134.8 38.1129 134.487 37.9289C134.174 37.7488 133.919 37.5139 133.728 37.2125V39.7886C133.728 39.8708 133.696 39.9413 133.645 40C133.587 40.0509 133.524 40.0822 133.434 40.0822C133.352 40.0822 133.281 40.0509 133.223 40C133.172 39.9491 133.14 39.8786 133.14 39.7886V33.4188C133.14 33.3365 133.172 33.2661 133.223 33.2074C133.281 33.1486 133.344 33.1173 133.434 33.1173C133.516 33.1173 133.587 33.1486 133.645 33.2074C133.696 33.2661 133.728 33.3405 133.728 33.4188V34.0843C133.9 33.7829 134.143 33.5401 134.456 33.3679C134.781 33.1956 135.121 33.1056 135.509 33.1056C135.944 33.0938 136.339 33.2074 136.683 33.4305L136.68 33.4344ZM136.378 37.3965C136.652 37.2242 136.864 36.9815 137.016 36.68C137.169 36.3786 137.247 36.034 137.247 35.6504C137.247 35.2667 137.165 34.9339 137.016 34.6285C136.867 34.3232 136.652 34.0922 136.378 33.9121C136.104 33.7398 135.803 33.6498 135.47 33.6498C135.137 33.6498 134.812 33.732 134.538 33.9043C134.264 34.0765 134.053 34.3075 133.9 34.6129C133.747 34.9183 133.677 35.2589 133.677 35.6425C133.677 36.0262 133.747 36.3707 133.9 36.6722C134.053 36.9737 134.264 37.2164 134.538 37.3887C134.812 37.5609 135.125 37.651 135.47 37.651C135.803 37.6627 136.108 37.5688 136.378 37.3965Z" fill="#004392"/>
<path d="M138.984 32.3105C138.914 32.2517 138.875 32.1578 138.875 32.0364V31.9346C138.875 31.8132 138.914 31.731 138.984 31.6605C139.055 31.6018 139.164 31.5705 139.286 31.5705C139.548 31.5705 139.681 31.6919 139.681 31.9346V32.0364C139.681 32.1578 139.65 32.24 139.579 32.3105C139.509 32.3692 139.407 32.4005 139.286 32.4005C139.153 32.4005 139.055 32.3692 138.984 32.3105ZM139.501 38.0539C139.45 38.1048 139.38 38.1361 139.29 38.1361C139.208 38.1361 139.137 38.1048 139.078 38.0539C139.02 38.003 138.996 37.9325 138.996 37.8425V33.3519C138.996 33.2696 139.027 33.1992 139.078 33.1404C139.129 33.0895 139.2 33.0582 139.29 33.0582C139.372 33.0582 139.442 33.0895 139.501 33.1404C139.56 33.1913 139.583 33.2618 139.583 33.3519V37.8425C139.583 37.9247 139.564 37.9951 139.501 38.0539Z" fill="#004392"/>
<path d="M144.796 33.5561C145.078 33.9084 145.219 34.3861 145.219 34.9733V37.8431C145.219 37.9253 145.188 37.9958 145.129 38.0545C145.07 38.1054 144.996 38.1367 144.925 38.1367C144.843 38.1367 144.773 38.1054 144.714 38.0545C144.663 38.0036 144.632 37.9331 144.632 37.8431V35.0007C144.632 34.5779 144.522 34.2334 144.318 33.9711C144.107 33.7088 143.782 33.5756 143.34 33.5756C143.058 33.5756 142.796 33.6344 142.541 33.7675C142.287 33.9006 142.087 34.0689 141.934 34.2921C141.782 34.5153 141.703 34.7462 141.703 35.0007V37.8431C141.703 37.9253 141.672 37.9958 141.621 38.0545C141.562 38.1054 141.5 38.1367 141.41 38.1367C141.327 38.1367 141.257 38.1054 141.198 38.0545C141.147 38.0036 141.116 37.9331 141.116 37.8431V33.466C141.116 33.3838 141.147 33.3133 141.198 33.2546C141.257 33.2037 141.32 33.1724 141.41 33.1724C141.492 33.1724 141.562 33.2037 141.621 33.2546C141.672 33.3055 141.703 33.376 141.703 33.466V34.0024C141.875 33.7205 142.126 33.4856 142.463 33.3055C142.788 33.1254 143.128 33.0236 143.473 33.0236C144.068 33.0354 144.514 33.2037 144.796 33.56V33.5561Z" fill="#004392"/>
<path d="M151.178 33.2311C151.229 33.282 151.26 33.3642 151.26 33.4543V37.6786C151.26 38.1837 151.158 38.6183 150.947 38.9824C150.736 39.3465 150.442 39.6205 150.078 39.8124C149.714 40.0042 149.291 40.0943 148.813 40.0943C148.582 40.0943 148.347 40.0629 148.097 40.0042C147.846 39.9455 147.631 39.8711 147.451 39.781C147.271 39.691 147.169 39.601 147.149 39.4992C147.098 39.46 147.079 39.3974 147.079 39.3465C147.079 39.2877 147.11 39.2251 147.169 39.1938C147.2 39.1742 147.228 39.1625 147.271 39.1625C147.314 39.1625 147.38 39.182 147.494 39.2329L147.697 39.323C148.101 39.4757 148.477 39.554 148.829 39.554C149.404 39.554 149.859 39.3935 150.195 39.0568C150.52 38.724 150.693 38.2894 150.693 37.7217V37.1149C150.532 37.4672 150.27 37.7413 149.925 37.9449C149.573 38.1485 149.209 38.2385 148.825 38.2385C148.379 38.2385 147.968 38.1289 147.611 37.9057C147.247 37.6826 146.965 37.3694 146.762 36.9739C146.55 36.5785 146.449 36.1361 146.449 35.6389C146.449 35.1417 146.55 34.7071 146.762 34.3156C146.973 33.9241 147.259 33.607 147.611 33.3838C147.975 33.1607 148.379 33.051 148.813 33.051C149.248 33.051 149.6 33.1528 149.945 33.3525C150.289 33.5561 150.54 33.8066 150.704 34.0924V33.466C150.704 33.3838 150.736 33.3133 150.786 33.2546C150.845 33.1959 150.908 33.1646 150.998 33.1646C151.068 33.1333 151.139 33.1646 151.19 33.2233L151.178 33.2311ZM149.812 37.4281C150.093 37.2558 150.317 37.0131 150.477 36.6999C150.638 36.3867 150.72 36.0226 150.72 35.6272C150.72 35.2317 150.638 34.8794 150.477 34.5662C150.317 34.253 150.093 34.0102 149.812 33.838C149.53 33.6657 149.205 33.5757 148.852 33.5757C148.5 33.5757 148.187 33.6657 147.901 33.8497C147.619 34.0298 147.396 34.2725 147.235 34.5897C147.075 34.9029 146.993 35.2474 146.993 35.6311C146.993 36.0147 147.075 36.371 147.235 36.6842C147.396 36.9974 147.619 37.2402 147.901 37.4242C148.183 37.6043 148.496 37.6982 148.852 37.6982C149.205 37.6865 149.53 37.6082 149.812 37.4359V37.4281Z" fill="#004392"/>
<path d="M15.6172 7.32156H20.237V25.5502H15.6172V23.6396C13.7262 25.2565 11.6826 26.0748 9.50187 26.0748C6.75349 26.0748 4.47883 25.1665 2.6779 23.346C0.888709 21.4863 0 19.1686 0 16.3889C0 13.6092 0.888709 11.3854 2.6779 9.55316C4.46709 7.73265 6.70259 6.82434 9.38051 6.82434C11.6943 6.82434 13.7771 7.69349 15.6172 9.44353V7.32156ZM4.70982 16.3811C4.70982 18.1311 5.22661 19.5444 6.24845 20.6485C7.3016 21.7604 8.62489 22.3163 10.2105 22.3163C11.9096 22.3163 13.2956 21.7799 14.337 20.7072C15.3902 19.5953 15.9148 18.1898 15.9148 16.4828C15.9148 14.7759 15.3902 13.3703 14.337 12.2585C13.2838 11.1779 11.9214 10.6298 10.2536 10.6298C8.67579 10.6298 7.35249 11.174 6.29151 12.278C5.23052 13.3782 4.71374 14.7563 4.71374 16.3811H4.70982Z" fill="#E4462E"/>
<path d="M26.9197 0V25.5498H22.3195V0H26.9197Z" fill="#E4462E"/>
<path d="M29.0317 7.32156H33.6319V9.00896C34.5206 8.15939 35.2684 7.58387 35.8948 7.29024C36.5603 6.97703 37.4021 6.82434 38.4122 6.82434C40.6555 6.82434 42.4369 7.72481 43.7484 9.52183C45.1931 7.7209 47.1467 6.82434 49.6132 6.82434C54.0921 6.82434 56.3354 9.31041 56.3354 14.2865V25.5502H51.7156V15.4297C51.7156 13.6797 51.4846 12.4464 51.0187 11.7299C50.545 10.99 49.7542 10.6298 48.6618 10.6298C47.3973 10.6298 46.4694 11.0644 45.89 11.9453C45.3144 12.8144 45.0208 14.2199 45.0208 16.1501V25.5619H40.401V15.4923C40.401 12.2467 39.3792 10.6298 37.3394 10.6298C36.0435 10.6298 35.1039 11.0761 34.5088 11.9531C33.9137 12.8418 33.6201 14.2395 33.6201 16.1501V25.5619H29.0199V7.32156H29.0317Z" fill="#E4462E"/>
<path d="M73.0929 7.32156H77.7127V25.5502H73.0929V23.6396C71.2019 25.2565 69.1582 26.0748 66.9775 26.0748C64.2292 26.0748 61.9545 25.1665 60.1536 23.346C58.3644 21.4863 57.4756 19.1686 57.4756 16.3889C57.4756 13.6092 58.3644 11.3854 60.1536 9.55316C61.9428 7.73265 64.1783 6.82434 66.8562 6.82434C69.17 6.82434 71.2528 7.69349 73.0929 9.44353V7.32156ZM62.1855 16.3811C62.1855 18.1311 62.7023 19.5444 63.7241 20.6485C64.7773 21.7604 66.1006 22.3163 67.6862 22.3163C69.3853 22.3163 70.7712 21.7799 71.8126 20.7072C72.8658 19.5953 73.3904 18.1898 73.3904 16.4828C73.3904 14.7759 72.8658 13.3703 71.8126 12.2585C70.7595 11.1779 69.3971 10.6298 67.7292 10.6298C66.1515 10.6298 64.8282 11.174 63.7672 12.278C62.7062 13.3782 62.1894 14.7563 62.1894 16.3811H62.1855Z" fill="#E4462E"/>
<path d="M79.8105 7.32102H84.4303V9.00841C86.0394 7.552 87.8482 6.81598 89.8684 6.81598C92.1822 6.81598 93.9949 7.48154 95.2868 8.81658C96.3987 9.94803 96.9664 11.8077 96.9664 14.376V25.5457H92.3466V15.3665C92.3466 13.5656 92.0726 12.3323 91.5284 11.6472C90.992 10.9503 90.0328 10.594 88.6273 10.594C87.1004 10.594 86.0198 11.0599 85.3699 11.98C84.7435 12.8883 84.4303 14.4778 84.4303 16.7524V25.5496H79.8105V7.32102Z" fill="#E4462E"/>
<path d="M113.728 7.32156H118.348V25.5502H113.728V23.6396C111.837 25.2565 109.794 26.0748 107.613 26.0748C104.865 26.0748 102.59 25.1665 100.789 23.346C98.9999 21.4863 98.1112 19.1686 98.1112 16.3889C98.1112 13.6092 98.9999 11.3854 100.789 9.55316C102.578 7.73265 104.814 6.82434 107.492 6.82434C109.806 6.82434 111.888 7.69349 113.728 9.44353V7.32156ZM102.809 16.3811C102.809 18.1311 103.326 19.5444 104.348 20.6485C105.401 21.7604 106.724 22.3163 108.31 22.3163C110.009 22.3163 111.395 21.7799 112.436 20.7072C113.49 19.5953 114.014 18.1898 114.014 16.4828C114.014 14.7759 113.49 13.3703 112.436 12.2585C111.383 11.1779 110.021 10.6298 108.353 10.6298C106.775 10.6298 105.452 11.174 104.391 12.278C103.338 13.3782 102.813 14.7563 102.813 16.3811H102.809Z" fill="#E4462E"/>
<path d="M120.423 7.32102H125.023V8.94968C125.873 8.13926 126.62 7.58333 127.266 7.28187C127.932 6.96867 128.723 6.81598 129.643 6.81598C130.857 6.81598 132.121 7.18006 133.444 7.89652L131.342 11.749C130.473 11.1734 129.612 10.8916 128.786 10.8916C126.28 10.8916 125.023 12.6299 125.023 16.0986V25.5496H120.423V7.32102Z" fill="#E4462E"/>
<path d="M147.3 7.32156H151.92V25.5502H147.3V23.6396C145.409 25.2565 143.366 26.0748 141.185 26.0748C138.437 26.0748 136.162 25.1665 134.361 23.346C132.572 21.4863 131.683 19.1686 131.683 16.3889C131.683 13.6092 132.572 11.3854 134.361 9.55316C136.15 7.73265 138.386 6.82434 141.064 6.82434C143.377 6.82434 145.46 7.69349 147.3 9.44353V7.32156ZM136.393 16.3811C136.393 18.1311 136.91 19.5444 137.932 20.6485C138.985 21.7604 140.308 22.3163 141.894 22.3163C143.593 22.3163 144.979 21.7799 146.02 20.7072C147.073 19.5953 147.598 18.1898 147.598 16.4828C147.598 14.7759 147.073 13.3703 146.02 12.2585C144.967 11.1779 143.605 10.6298 141.937 10.6298C140.359 10.6298 139.036 11.174 137.975 12.278C136.921 13.3782 136.397 14.7563 136.397 16.3811H136.393Z" fill="#E4462E"/>
</svg>
