<svg width="11" height="11" viewBox="0 0 11 11" fill="none" xmlns="http://www.w3.org/2000/svg">
<path d="M11 5.19445C11.0021 6.00104 10.8136 6.79671 10.45 7.51667C10.0188 8.3794 9.35594 9.10505 8.53565 9.61234C7.71536 10.1196 6.77003 10.3885 5.80555 10.3889C4.99896 10.391 4.20329 10.2025 3.48333 9.83889L0 11L1.16111 7.51667C0.797457 6.79671 0.609007 6.00104 0.61111 5.19445C0.611483 4.22997 0.880373 3.28464 1.38766 2.46435C1.89495 1.64406 2.6206 0.981196 3.48333 0.550017C4.20329 0.186364 4.99896 -0.00208557 5.80555 1.74094e-05H6.1111C7.38487 0.07029 8.58796 0.607926 9.49002 1.50998C10.3921 2.41204 10.9297 3.61513 11 4.8889V5.19445Z" fill="#EEEFF0"/>
<circle cx="3.66667" cy="5.5" r="0.733333" fill="#004392"/>
<circle cx="5.86666" cy="5.5" r="0.733333" fill="#004392"/>
<circle cx="8.06667" cy="5.5" r="0.733333" fill="#004392"/>
</svg>
