<svg width="13" height="13" viewBox="0 0 13 13" fill="none" xmlns="http://www.w3.org/2000/svg">
<path d="M7.15949 0.620693C7.26536 0.18483 7.70486 -0.0827287 8.14081 0.0231272C10.5285 0.606985 12.3929 2.47076 12.9769 4.85823C13.0827 5.29409 12.8154 5.73351 12.3792 5.83937C11.943 5.94522 11.5037 5.67792 11.3978 5.2418C10.9652 3.46306 9.53625 2.03414 7.75692 1.60183C7.32097 1.49597 7.05336 1.05656 7.15923 0.620693H7.15949ZM12.3792 6.9949C11.9432 6.88904 11.5037 7.15634 11.3978 7.59246C10.8608 9.81493 8.86874 11.3789 6.58161 11.3728C3.84863 11.3728 1.62497 9.14958 1.62497 6.41713C1.61913 4.13069 3.18315 2.13898 5.4063 1.60208C5.84225 1.49623 6.10986 1.05681 6.00399 0.620693C5.89811 0.18483 5.45861 -0.0827287 5.02241 0.0231272C2.07285 0.740003 -0.00253668 3.38234 2.32707e-06 6.41713C-0.00279058 10.05 2.94042 12.9972 6.57399 13C8.0649 13.0013 9.51213 12.4959 10.6783 11.567C11.8201 10.6564 12.628 9.39379 12.9766 7.97578C13.0825 7.53991 12.8151 7.1005 12.3789 6.99464L12.3792 6.9949Z" fill="#004392"/>
</svg>
