<svg width="10" height="15" viewBox="0 0 10 15" fill="none" xmlns="http://www.w3.org/2000/svg">
<path d="M5 0C2.24312 0 0 2.29864 0 5.12296C0 6.46799 0.572187 8.25667 1.70062 10.4395C2.60687 12.192 3.65531 13.7767 4.20062 14.5653C4.29277 14.7 4.41325 14.8096 4.5523 14.8851C4.69134 14.9606 4.84504 15 5.00094 15C5.15683 15 5.31053 14.9606 5.44958 14.8851C5.58862 14.8096 5.70911 14.7 5.80125 14.5653C6.34563 13.7767 7.395 12.192 8.30125 10.4395C9.42781 8.25734 10 6.46866 10 5.12296C10 2.29864 7.75688 0 5 0ZM5 7.50028C4.60444 7.50028 4.21776 7.3746 3.88886 7.13913C3.55996 6.90366 3.30362 6.56898 3.15224 6.17741C3.00087 5.78584 2.96126 5.35497 3.03843 4.93928C3.1156 4.52359 3.30608 4.14175 3.58579 3.84206C3.86549 3.54236 4.22186 3.33827 4.60982 3.25558C4.99778 3.1729 5.39991 3.21533 5.76537 3.37753C6.13082 3.53972 6.44318 3.81439 6.66294 4.16679C6.8827 4.5192 7 4.93351 7 5.35734C6.99942 5.92549 6.78852 6.4702 6.41357 6.87194C6.03863 7.27369 5.53026 7.49966 5 7.50028Z" fill="#3C699E"/>
</svg>
